<mxfile host="Electron" modified="2024-06-04T16:39:42.183Z" agent="Mozilla/5.0 (X11; Linux x86_64) AppleWebKit/537.36 (KHTML, like Gecko) draw.io/24.4.0 Chrome/120.0.6099.109 Electron/28.1.0 Safari/537.36" etag="txcVq97I2XOE753SNwoa" version="24.4.0" type="device" pages="2">
  <diagram name="Before reduction" id="E_q80hwc4rtLo3_Dvrz3">
    <mxGraphModel dx="686" dy="703" grid="1" gridSize="10" guides="1" tooltips="1" connect="1" arrows="1" fold="1" page="1" pageScale="1" pageWidth="850" pageHeight="1100" math="0" shadow="0">
      <root>
        <mxCell id="0" />
        <mxCell id="1" parent="0" />
        <mxCell id="-cjdfjuXsOcerDKOP2Jq-14" style="edgeStyle=orthogonalEdgeStyle;rounded=0;orthogonalLoop=1;jettySize=auto;html=1;entryX=0.5;entryY=0;entryDx=0;entryDy=0;" edge="1" parent="1" source="-cjdfjuXsOcerDKOP2Jq-2" target="-cjdfjuXsOcerDKOP2Jq-3">
          <mxGeometry relative="1" as="geometry" />
        </mxCell>
        <mxCell id="-cjdfjuXsOcerDKOP2Jq-2" value="LG&lt;i&gt;&lt;sub&gt;β&lt;/sub&gt;&lt;/i&gt;" style="ellipse;whiteSpace=wrap;html=1;" vertex="1" parent="1">
          <mxGeometry x="360" y="120" width="40" height="40" as="geometry" />
        </mxCell>
        <mxCell id="-cjdfjuXsOcerDKOP2Jq-15" style="edgeStyle=orthogonalEdgeStyle;rounded=0;orthogonalLoop=1;jettySize=auto;html=1;entryX=0.5;entryY=0;entryDx=0;entryDy=0;" edge="1" parent="1" source="-cjdfjuXsOcerDKOP2Jq-3" target="-cjdfjuXsOcerDKOP2Jq-6">
          <mxGeometry relative="1" as="geometry" />
        </mxCell>
        <mxCell id="-cjdfjuXsOcerDKOP2Jq-3" value="&lt;em&gt;β&lt;/em&gt;" style="ellipse;whiteSpace=wrap;html=1;fillColor=#fff2cc;strokeColor=#d6b656;" vertex="1" parent="1">
          <mxGeometry x="360" y="200" width="40" height="40" as="geometry" />
        </mxCell>
        <mxCell id="-cjdfjuXsOcerDKOP2Jq-4" value="&lt;i&gt;ε&lt;/i&gt;&lt;span style=&quot;font-size: 10px;&quot;&gt;&lt;sub style=&quot;&quot;&gt;1&lt;/sub&gt;&lt;/span&gt;" style="ellipse;whiteSpace=wrap;html=1;fillColor=#dae8fc;strokeColor=#6c8ebf;" vertex="1" parent="1">
          <mxGeometry x="440" y="600" width="40" height="40" as="geometry" />
        </mxCell>
        <mxCell id="-cjdfjuXsOcerDKOP2Jq-16" style="edgeStyle=orthogonalEdgeStyle;rounded=0;orthogonalLoop=1;jettySize=auto;html=1;entryX=0.5;entryY=0;entryDx=0;entryDy=0;" edge="1" parent="1" source="-cjdfjuXsOcerDKOP2Jq-6" target="-cjdfjuXsOcerDKOP2Jq-9">
          <mxGeometry relative="1" as="geometry" />
        </mxCell>
        <mxCell id="-cjdfjuXsOcerDKOP2Jq-6" value="&lt;em&gt;β&lt;/em&gt;" style="ellipse;whiteSpace=wrap;html=1;fillColor=#fff2cc;strokeColor=#d6b656;" vertex="1" parent="1">
          <mxGeometry x="360" y="280" width="40" height="40" as="geometry" />
        </mxCell>
        <mxCell id="-cjdfjuXsOcerDKOP2Jq-17" style="edgeStyle=orthogonalEdgeStyle;rounded=0;orthogonalLoop=1;jettySize=auto;html=1;entryX=0.5;entryY=0;entryDx=0;entryDy=0;" edge="1" parent="1" source="-cjdfjuXsOcerDKOP2Jq-9" target="-cjdfjuXsOcerDKOP2Jq-11">
          <mxGeometry relative="1" as="geometry" />
        </mxCell>
        <mxCell id="-cjdfjuXsOcerDKOP2Jq-26" style="edgeStyle=orthogonalEdgeStyle;rounded=0;orthogonalLoop=1;jettySize=auto;html=1;entryX=0.5;entryY=0;entryDx=0;entryDy=0;" edge="1" parent="1" source="-cjdfjuXsOcerDKOP2Jq-9" target="-cjdfjuXsOcerDKOP2Jq-25">
          <mxGeometry relative="1" as="geometry" />
        </mxCell>
        <mxCell id="-cjdfjuXsOcerDKOP2Jq-9" value="&lt;em&gt;β&lt;/em&gt;" style="ellipse;whiteSpace=wrap;html=1;fillColor=#fff2cc;strokeColor=#d6b656;" vertex="1" parent="1">
          <mxGeometry x="360" y="360" width="40" height="40" as="geometry" />
        </mxCell>
        <mxCell id="-cjdfjuXsOcerDKOP2Jq-18" style="edgeStyle=orthogonalEdgeStyle;rounded=0;orthogonalLoop=1;jettySize=auto;html=1;entryX=0.5;entryY=0;entryDx=0;entryDy=0;" edge="1" parent="1" source="-cjdfjuXsOcerDKOP2Jq-11" target="-cjdfjuXsOcerDKOP2Jq-12">
          <mxGeometry relative="1" as="geometry" />
        </mxCell>
        <mxCell id="-cjdfjuXsOcerDKOP2Jq-11" value="&lt;em&gt;β&lt;/em&gt;" style="ellipse;whiteSpace=wrap;html=1;fillColor=#fff2cc;strokeColor=#d6b656;" vertex="1" parent="1">
          <mxGeometry x="360" y="440" width="40" height="40" as="geometry" />
        </mxCell>
        <mxCell id="-cjdfjuXsOcerDKOP2Jq-19" style="edgeStyle=orthogonalEdgeStyle;rounded=0;orthogonalLoop=1;jettySize=auto;html=1;entryX=0.5;entryY=0;entryDx=0;entryDy=0;" edge="1" parent="1" source="-cjdfjuXsOcerDKOP2Jq-12" target="-cjdfjuXsOcerDKOP2Jq-13">
          <mxGeometry relative="1" as="geometry" />
        </mxCell>
        <mxCell id="-cjdfjuXsOcerDKOP2Jq-20" style="edgeStyle=orthogonalEdgeStyle;rounded=0;orthogonalLoop=1;jettySize=auto;html=1;entryX=0.5;entryY=0;entryDx=0;entryDy=0;" edge="1" parent="1" source="-cjdfjuXsOcerDKOP2Jq-12" target="-cjdfjuXsOcerDKOP2Jq-4">
          <mxGeometry relative="1" as="geometry" />
        </mxCell>
        <mxCell id="-cjdfjuXsOcerDKOP2Jq-22" style="edgeStyle=orthogonalEdgeStyle;rounded=0;orthogonalLoop=1;jettySize=auto;html=1;" edge="1" parent="1" source="-cjdfjuXsOcerDKOP2Jq-12" target="-cjdfjuXsOcerDKOP2Jq-21">
          <mxGeometry relative="1" as="geometry" />
        </mxCell>
        <mxCell id="-cjdfjuXsOcerDKOP2Jq-12" value="&lt;em&gt;β&lt;/em&gt;" style="ellipse;whiteSpace=wrap;html=1;fillColor=#fff2cc;strokeColor=#d6b656;" vertex="1" parent="1">
          <mxGeometry x="360" y="520" width="40" height="40" as="geometry" />
        </mxCell>
        <mxCell id="-cjdfjuXsOcerDKOP2Jq-13" value="&lt;em&gt;β&lt;/em&gt;" style="ellipse;whiteSpace=wrap;html=1;" vertex="1" parent="1">
          <mxGeometry x="360" y="600" width="40" height="40" as="geometry" />
        </mxCell>
        <mxCell id="-cjdfjuXsOcerDKOP2Jq-24" style="edgeStyle=orthogonalEdgeStyle;rounded=0;orthogonalLoop=1;jettySize=auto;html=1;entryX=0.5;entryY=0;entryDx=0;entryDy=0;" edge="1" parent="1" source="-cjdfjuXsOcerDKOP2Jq-21" target="-cjdfjuXsOcerDKOP2Jq-23">
          <mxGeometry relative="1" as="geometry" />
        </mxCell>
        <mxCell id="-cjdfjuXsOcerDKOP2Jq-21" value="&lt;i&gt;ε&lt;/i&gt;&lt;span style=&quot;font-size: 10px;&quot;&gt;&lt;sub style=&quot;&quot;&gt;1&lt;/sub&gt;&lt;/span&gt;" style="ellipse;whiteSpace=wrap;html=1;fillColor=#fff2cc;strokeColor=#d6b656;" vertex="1" parent="1">
          <mxGeometry x="520" y="600" width="40" height="40" as="geometry" />
        </mxCell>
        <mxCell id="-cjdfjuXsOcerDKOP2Jq-23" value="&lt;i&gt;ε&lt;/i&gt;&lt;span style=&quot;font-size: 10px;&quot;&gt;&lt;sub style=&quot;&quot;&gt;1&lt;/sub&gt;&lt;/span&gt;" style="ellipse;whiteSpace=wrap;html=1;" vertex="1" parent="1">
          <mxGeometry x="520" y="680" width="40" height="40" as="geometry" />
        </mxCell>
        <mxCell id="-cjdfjuXsOcerDKOP2Jq-29" style="edgeStyle=orthogonalEdgeStyle;rounded=0;orthogonalLoop=1;jettySize=auto;html=1;entryX=0.5;entryY=0;entryDx=0;entryDy=0;" edge="1" parent="1" source="-cjdfjuXsOcerDKOP2Jq-25" target="-cjdfjuXsOcerDKOP2Jq-27">
          <mxGeometry relative="1" as="geometry" />
        </mxCell>
        <mxCell id="-cjdfjuXsOcerDKOP2Jq-25" value="&lt;em&gt;β&lt;/em&gt;" style="ellipse;whiteSpace=wrap;html=1;fillColor=#fff2cc;strokeColor=#d6b656;" vertex="1" parent="1">
          <mxGeometry x="280" y="440" width="40" height="40" as="geometry" />
        </mxCell>
        <mxCell id="-cjdfjuXsOcerDKOP2Jq-30" style="edgeStyle=orthogonalEdgeStyle;rounded=0;orthogonalLoop=1;jettySize=auto;html=1;entryX=0.5;entryY=0;entryDx=0;entryDy=0;" edge="1" parent="1" source="-cjdfjuXsOcerDKOP2Jq-27" target="-cjdfjuXsOcerDKOP2Jq-28">
          <mxGeometry relative="1" as="geometry" />
        </mxCell>
        <mxCell id="-cjdfjuXsOcerDKOP2Jq-32" style="edgeStyle=orthogonalEdgeStyle;rounded=0;orthogonalLoop=1;jettySize=auto;html=1;entryX=0.5;entryY=0;entryDx=0;entryDy=0;" edge="1" parent="1" source="-cjdfjuXsOcerDKOP2Jq-27" target="-cjdfjuXsOcerDKOP2Jq-31">
          <mxGeometry relative="1" as="geometry" />
        </mxCell>
        <mxCell id="-cjdfjuXsOcerDKOP2Jq-34" style="edgeStyle=orthogonalEdgeStyle;rounded=0;orthogonalLoop=1;jettySize=auto;html=1;entryX=0.5;entryY=0;entryDx=0;entryDy=0;" edge="1" parent="1" source="-cjdfjuXsOcerDKOP2Jq-27" target="-cjdfjuXsOcerDKOP2Jq-33">
          <mxGeometry relative="1" as="geometry" />
        </mxCell>
        <mxCell id="-cjdfjuXsOcerDKOP2Jq-27" value="&lt;em&gt;β&lt;/em&gt;" style="ellipse;whiteSpace=wrap;html=1;fillColor=#fff2cc;strokeColor=#d6b656;" vertex="1" parent="1">
          <mxGeometry x="280" y="520" width="40" height="40" as="geometry" />
        </mxCell>
        <mxCell id="-cjdfjuXsOcerDKOP2Jq-28" value="&lt;em&gt;β&lt;/em&gt;" style="ellipse;whiteSpace=wrap;html=1;fillColor=#fff2cc;strokeColor=#d6b656;" vertex="1" parent="1">
          <mxGeometry x="280" y="600" width="40" height="40" as="geometry" />
        </mxCell>
        <mxCell id="-cjdfjuXsOcerDKOP2Jq-31" value="&lt;i&gt;ε&lt;/i&gt;&lt;sub&gt;2&lt;/sub&gt;" style="ellipse;whiteSpace=wrap;html=1;fillColor=#dae8fc;strokeColor=#6c8ebf;" vertex="1" parent="1">
          <mxGeometry x="200" y="600" width="40" height="40" as="geometry" />
        </mxCell>
        <mxCell id="-cjdfjuXsOcerDKOP2Jq-36" style="edgeStyle=orthogonalEdgeStyle;rounded=0;orthogonalLoop=1;jettySize=auto;html=1;entryX=0.5;entryY=0;entryDx=0;entryDy=0;" edge="1" parent="1" source="-cjdfjuXsOcerDKOP2Jq-33" target="-cjdfjuXsOcerDKOP2Jq-35">
          <mxGeometry relative="1" as="geometry" />
        </mxCell>
        <mxCell id="-cjdfjuXsOcerDKOP2Jq-33" value="&lt;i&gt;ε&lt;/i&gt;&lt;sub&gt;2&lt;/sub&gt;" style="ellipse;whiteSpace=wrap;html=1;fillColor=#fff2cc;strokeColor=#d6b656;" vertex="1" parent="1">
          <mxGeometry x="120" y="600" width="40" height="40" as="geometry" />
        </mxCell>
        <mxCell id="-cjdfjuXsOcerDKOP2Jq-35" value="&lt;i&gt;ε&lt;/i&gt;&lt;sub&gt;2&lt;/sub&gt;" style="ellipse;whiteSpace=wrap;html=1;" vertex="1" parent="1">
          <mxGeometry x="120" y="680" width="40" height="40" as="geometry" />
        </mxCell>
        <mxCell id="8Cvf8t3gboHTu20OmlRn-1" value="" style="triangle;whiteSpace=wrap;html=1;fillColor=#f8cecc;strokeColor=#b85450;rotation=-90;" vertex="1" parent="1">
          <mxGeometry x="110" y="670" width="20" height="20" as="geometry" />
        </mxCell>
      </root>
    </mxGraphModel>
  </diagram>
  <diagram name="After reduction" id="A6uBgE0YcXQoBGModRpm">
    <mxGraphModel dx="473" dy="486" grid="1" gridSize="10" guides="1" tooltips="1" connect="1" arrows="1" fold="1" page="1" pageScale="1" pageWidth="850" pageHeight="1100" math="0" shadow="0">
      <root>
        <mxCell id="W5UiSo5GD7M5KzQxyN7N-0" />
        <mxCell id="W5UiSo5GD7M5KzQxyN7N-1" parent="W5UiSo5GD7M5KzQxyN7N-0" />
        <mxCell id="upuNX8QW-sjwbdn-5xnM-2" style="edgeStyle=orthogonalEdgeStyle;rounded=0;orthogonalLoop=1;jettySize=auto;html=1;entryX=0.5;entryY=0;entryDx=0;entryDy=0;" edge="1" parent="W5UiSo5GD7M5KzQxyN7N-1" source="W5UiSo5GD7M5KzQxyN7N-3" target="upuNX8QW-sjwbdn-5xnM-1">
          <mxGeometry relative="1" as="geometry" />
        </mxCell>
        <mxCell id="W5UiSo5GD7M5KzQxyN7N-3" value="LG&lt;i&gt;&lt;sub&gt;β&lt;/sub&gt;&lt;/i&gt;" style="ellipse;whiteSpace=wrap;html=1;" vertex="1" parent="W5UiSo5GD7M5KzQxyN7N-1">
          <mxGeometry x="360" y="280" width="40" height="40" as="geometry" />
        </mxCell>
        <mxCell id="W5UiSo5GD7M5KzQxyN7N-21" value="&lt;i&gt;ε&lt;/i&gt;&lt;span style=&quot;font-size: 10px;&quot;&gt;&lt;sub style=&quot;&quot;&gt;1&lt;/sub&gt;&lt;/span&gt;" style="ellipse;whiteSpace=wrap;html=1;" vertex="1" parent="W5UiSo5GD7M5KzQxyN7N-1">
          <mxGeometry x="440" y="440" width="40" height="40" as="geometry" />
        </mxCell>
        <mxCell id="W5UiSo5GD7M5KzQxyN7N-32" value="&lt;i&gt;ε&lt;/i&gt;&lt;sub&gt;2&lt;/sub&gt;" style="ellipse;whiteSpace=wrap;html=1;" vertex="1" parent="W5UiSo5GD7M5KzQxyN7N-1">
          <mxGeometry x="280" y="440" width="40" height="40" as="geometry" />
        </mxCell>
        <mxCell id="9UaoNi9OwDRaSwCjuMUi-0" value="" style="triangle;whiteSpace=wrap;html=1;fillColor=#f8cecc;strokeColor=#b85450;rotation=-90;" vertex="1" parent="W5UiSo5GD7M5KzQxyN7N-1">
          <mxGeometry x="270" y="430" width="20" height="20" as="geometry" />
        </mxCell>
        <mxCell id="0sjKnywmZUbfL50LYfN4-0" style="edgeStyle=orthogonalEdgeStyle;rounded=0;orthogonalLoop=1;jettySize=auto;html=1;entryX=0.5;entryY=0;entryDx=0;entryDy=0;" edge="1" parent="W5UiSo5GD7M5KzQxyN7N-1" source="upuNX8QW-sjwbdn-5xnM-1" target="W5UiSo5GD7M5KzQxyN7N-32">
          <mxGeometry relative="1" as="geometry" />
        </mxCell>
        <mxCell id="0sjKnywmZUbfL50LYfN4-1" style="edgeStyle=orthogonalEdgeStyle;rounded=0;orthogonalLoop=1;jettySize=auto;html=1;entryX=0.5;entryY=0;entryDx=0;entryDy=0;" edge="1" parent="W5UiSo5GD7M5KzQxyN7N-1" source="upuNX8QW-sjwbdn-5xnM-1" target="W5UiSo5GD7M5KzQxyN7N-21">
          <mxGeometry relative="1" as="geometry" />
        </mxCell>
        <mxCell id="upuNX8QW-sjwbdn-5xnM-1" value="&lt;em&gt;β&lt;/em&gt;" style="ellipse;whiteSpace=wrap;html=1;" vertex="1" parent="W5UiSo5GD7M5KzQxyN7N-1">
          <mxGeometry x="360" y="360" width="40" height="40" as="geometry" />
        </mxCell>
      </root>
    </mxGraphModel>
  </diagram>
</mxfile>
